<svg xmlns="http://www.w3.org/2000/svg" xmlns:xlink="http://www.w3.org/1999/xlink" version="1.1" width="256" height="256" viewBox="0 0 256 256" xml:space="preserve">

<defs>
</defs>
<g style="stroke: none; stroke-width: 0; stroke-dasharray: none; stroke-linecap: butt; stroke-linejoin: miter; stroke-miterlimit: 10; fill: none; fill-rule: nonzero; opacity: 1;" transform="translate(1.4065934065934016 1.4065934065934016) scale(2.81 2.81)" >
	<path d="M 68.798 49.977 c -1.146 -2.665 -3.169 -5.34 -7.532 -6.406 l -5.784 -0.974 c -0.378 -0.064 -0.739 -0.168 -1.078 -0.308 c -1.664 -0.686 -2.788 -2.222 -2.788 -3.965 l -0.036 -1.586 l -13.061 0.088 l -0.036 1.498 c 0 1.773 -1.162 3.331 -2.873 3.999 c -0.06 0.024 -0.121 0.046 -0.183 0.067 c -0.259 0.089 -0.529 0.159 -0.809 0.206 l -5.784 0.974 c -4.364 1.066 -6.397 3.765 -7.543 6.43 L 45.1 62.815 L 68.798 49.977 z" style="stroke: none; stroke-width: 1; stroke-dasharray: none; stroke-linecap: butt; stroke-linejoin: miter; stroke-miterlimit: 10; fill: rgb(221,66,49); fill-rule: nonzero; opacity: 1;" transform=" matrix(1 0 0 1 0 0) " stroke-linecap="round" />
	<path d="M 51.58 36.738 l 0.036 1.586 c 0 1.743 1.123 3.279 2.788 3.965 c -6.241 6.168 -12.515 6.218 -18.796 0.03 l 0.002 0.004 c 1.712 -0.668 2.873 -2.226 2.873 -3.999 l 0.036 -1.498 C 42.895 33.118 47.249 33.051 51.58 36.738 z" style="stroke: none; stroke-width: 1; stroke-dasharray: none; stroke-linecap: butt; stroke-linejoin: miter; stroke-miterlimit: 10; fill: rgb(221,66,49); fill-rule: nonzero; opacity: 1;" transform=" matrix(1 0 0 1 0 0) " stroke-linecap="round" />
	<path d="M 33.594 21.711 h -1.377 c -0.773 0 -1.401 0.627 -1.401 1.401 v 2.315 c 0 2.271 1.518 4.188 3.594 4.792 L 33.594 21.711 z" style="stroke: none; stroke-width: 1; stroke-dasharray: none; stroke-linecap: butt; stroke-linejoin: miter; stroke-miterlimit: 10; fill: rgb(221,66,49); fill-rule: nonzero; opacity: 1;" transform=" matrix(1 0 0 1 0 0) " stroke-linecap="round" />
	<path d="M 56.458 21.711 h 1.324 c 0.773 0 1.401 0.627 1.401 1.401 v 2.313 c 0 2.272 -1.518 4.189 -3.595 4.793 L 56.458 21.711 z" style="stroke: none; stroke-width: 1; stroke-dasharray: none; stroke-linecap: butt; stroke-linejoin: miter; stroke-miterlimit: 10; fill: rgb(221,66,49); fill-rule: nonzero; opacity: 1;" transform=" matrix(1 0 0 1 0 0) " stroke-linecap="round" />
	<path d="M 56.5 20.581 l -0.456 7.091 c -0.135 1.609 -0.545 3.15 -1.191 4.569 c -0.349 0.767 -0.766 1.499 -1.246 2.186 c -0.479 0.688 -1.021 1.331 -1.618 1.922 c -1.399 1.384 -3.102 2.479 -5.025 3.174 l 0 0 c -1.27 0.459 -2.66 0.459 -3.93 0 l 0 0 c -5.082 -1.836 -8.629 -6.466 -9.079 -11.851 l -0.429 -7.091 v -8.858 H 56.5 V 20.581 z" style="stroke: none; stroke-width: 1; stroke-dasharray: none; stroke-linecap: butt; stroke-linejoin: miter; stroke-miterlimit: 10; fill: rgb(221,66,49); fill-rule: nonzero; opacity: 1;" transform=" matrix(1 0 0 1 0 0) " stroke-linecap="round" />
	<path d="M 45 40.866 c -0.781 0 -1.562 -0.134 -2.305 -0.403 c -5.433 -1.963 -9.255 -6.952 -9.736 -12.708 l -0.43 -7.115 c -0.034 -0.551 0.386 -1.025 0.938 -1.059 c 0.543 -0.043 1.025 0.386 1.059 0.938 l 0.429 7.092 c 0.415 4.957 3.721 9.272 8.421 10.971 c 1.049 0.379 2.202 0.378 3.251 0 c 1.763 -0.637 3.33 -1.628 4.661 -2.944 c 0.553 -0.548 1.059 -1.148 1.501 -1.783 c 0.444 -0.637 0.833 -1.319 1.155 -2.028 c 0.61 -1.342 0.981 -2.768 1.106 -4.239 l 0.454 -7.072 c 0.036 -0.551 0.49 -0.976 1.063 -0.934 c 0.551 0.036 0.969 0.511 0.934 1.062 l -0.456 7.092 c -0.144 1.72 -0.574 3.368 -1.279 4.919 c -0.372 0.819 -0.821 1.608 -1.335 2.345 c -0.512 0.733 -1.096 1.427 -1.734 2.06 c -1.539 1.523 -3.352 2.668 -5.389 3.403 C 46.562 40.732 45.78 40.866 45 40.866 z" style="stroke: none; stroke-width: 1; stroke-dasharray: none; stroke-linecap: butt; stroke-linejoin: miter; stroke-miterlimit: 10; fill: rgb(0,0,0); fill-rule: nonzero; opacity: 1;" transform=" matrix(1 0 0 1 0 0) " stroke-linecap="round" />
	<path d="M 43.089 23.741 c -0.156 0 -0.313 -0.036 -0.461 -0.113 c -1.131 -0.59 -2.184 -0.59 -3.315 0 c -0.491 0.255 -1.094 0.065 -1.349 -0.424 s -0.065 -1.094 0.424 -1.349 c 1.714 -0.894 3.45 -0.894 5.164 0 c 0.49 0.255 0.68 0.859 0.424 1.349 C 43.799 23.545 43.45 23.741 43.089 23.741 z" style="stroke: none; stroke-width: 1; stroke-dasharray: none; stroke-linecap: butt; stroke-linejoin: miter; stroke-miterlimit: 10; fill: rgb(0,0,0); fill-rule: nonzero; opacity: 1;" transform=" matrix(1 0 0 1 0 0) " stroke-linecap="round" />
	<path d="M 51.148 23.741 c -0.155 0 -0.313 -0.036 -0.461 -0.113 c -1.13 -0.59 -2.184 -0.591 -3.316 0 c -0.49 0.257 -1.093 0.065 -1.349 -0.424 c -0.255 -0.49 -0.065 -1.094 0.425 -1.349 c 1.715 -0.894 3.452 -0.893 5.163 0 c 0.49 0.255 0.68 0.859 0.425 1.349 C 51.857 23.545 51.509 23.741 51.148 23.741 z" style="stroke: none; stroke-width: 1; stroke-dasharray: none; stroke-linecap: butt; stroke-linejoin: miter; stroke-miterlimit: 10; fill: rgb(0,0,0); fill-rule: nonzero; opacity: 1;" transform=" matrix(1 0 0 1 0 0) " stroke-linecap="round" />
	<path d="M 44.991 35.064 c -0.003 0 -0.005 0 -0.008 0 c -1.941 -0.003 -3.84 -1.215 -5.645 -3.604 c -0.229 -0.303 -0.267 -0.709 -0.097 -1.049 c 0.169 -0.339 0.516 -0.554 0.895 -0.554 h 9.726 c 0.38 0 0.728 0.215 0.896 0.556 c 0.169 0.341 0.131 0.748 -0.1 1.05 C 48.84 33.853 46.933 35.064 44.991 35.064 z M 42.378 31.857 c 0.897 0.801 1.77 1.206 2.608 1.207 c 0.001 0 0.003 0 0.004 0 c 0.84 0 1.717 -0.404 2.621 -1.207 H 42.378 z" style="stroke: none; stroke-width: 1; stroke-dasharray: none; stroke-linecap: butt; stroke-linejoin: miter; stroke-miterlimit: 10; fill: rgb(0,0,0); fill-rule: nonzero; opacity: 1;" transform=" matrix(1 0 0 1 0 0) " stroke-linecap="round" />
	<path d="M 56.5 20.581 c 5.074 -7.551 2.771 -12.697 -5.398 -15.93 c 0.178 -0.746 1.207 -1.492 2.831 -2.238 C 47.215 -0.112 39.225 0.465 35.57 6.368 c -5.007 1.688 -6.541 7.292 -2.044 14.213 c 0.502 -8.47 6 -7.782 12.639 -5.003 c 3.357 1.285 6.271 1.152 9.018 0.724 C 56.685 16.021 56.611 18.692 56.5 20.581 z" style="stroke: none; stroke-width: 1; stroke-dasharray: none; stroke-linecap: butt; stroke-linejoin: miter; stroke-miterlimit: 10; fill: rgb(221,66,49); fill-rule: nonzero; opacity: 1;" transform=" matrix(1 0 0 1 0 0) " stroke-linecap="round" />
	<path d="M 34.411 31.219 c -0.092 0 -0.187 -0.013 -0.28 -0.041 c -2.541 -0.739 -4.315 -3.104 -4.315 -5.752 v -2.315 c 0 -1.324 1.077 -2.401 2.401 -2.401 h 1.378 c 0.552 0 1 0.448 1 1 c 0 0.552 -0.448 1 -1 1 h -1.378 c -0.221 0 -0.4 0.18 -0.4 0.4 v 2.315 c 0 1.764 1.182 3.34 2.873 3.832 c 0.53 0.154 0.835 0.709 0.681 1.239 C 35.244 30.935 34.844 31.219 34.411 31.219 z" style="stroke: none; stroke-width: 1; stroke-dasharray: none; stroke-linecap: butt; stroke-linejoin: miter; stroke-miterlimit: 10; fill: rgb(0,0,0); fill-rule: nonzero; opacity: 1;" transform=" matrix(1 0 0 1 0 0) " stroke-linecap="round" />
	<path d="M 55.587 31.218 c -0.434 0 -0.833 -0.284 -0.96 -0.721 c -0.154 -0.53 0.15 -1.086 0.681 -1.24 c 1.692 -0.492 2.874 -2.068 2.874 -3.833 v -2.313 c 0 -0.221 -0.18 -0.4 -0.4 -0.4 h -1.324 c -0.553 0 -1 -0.448 -1 -1 c 0 -0.552 0.447 -1 1 -1 h 1.324 c 1.323 0 2.401 1.077 2.401 2.401 v 2.313 c 0 2.649 -1.775 5.014 -4.316 5.754 C 55.773 31.205 55.679 31.218 55.587 31.218 z" style="stroke: none; stroke-width: 1; stroke-dasharray: none; stroke-linecap: butt; stroke-linejoin: miter; stroke-miterlimit: 10; fill: rgb(0,0,0); fill-rule: nonzero; opacity: 1;" transform=" matrix(1 0 0 1 0 0) " stroke-linecap="round" />
	<path d="M 44.99 47.906 c -3.393 0 -6.785 -1.624 -10.084 -4.874 c -0.394 -0.388 -0.398 -1.021 -0.011 -1.414 c 0.388 -0.394 1.021 -0.398 1.414 -0.011 c 5.851 5.763 11.54 5.755 17.391 -0.03 c 0.394 -0.387 1.026 -0.384 1.414 0.008 c 0.389 0.393 0.385 1.026 -0.008 1.415 C 51.798 46.271 48.394 47.906 44.99 47.906 z" style="stroke: none; stroke-width: 1; stroke-dasharray: none; stroke-linecap: butt; stroke-linejoin: miter; stroke-miterlimit: 10; fill: rgb(0,0,0); fill-rule: nonzero; opacity: 1;" transform=" matrix(1 0 0 1 0 0) " stroke-linecap="round" />
	<path d="M 56.501 21.581 c -0.106 0 -0.214 -0.017 -0.319 -0.052 c -0.427 -0.144 -0.705 -0.556 -0.679 -1.006 c 0.131 -2.243 -0.04 -2.986 -0.184 -3.229 c -2.674 0.411 -5.841 0.623 -9.511 -0.781 c -2.865 -1.199 -6.892 -2.621 -9.098 -1.243 c -1.286 0.802 -2.022 2.61 -2.185 5.371 c -0.025 0.431 -0.325 0.797 -0.742 0.908 c -0.418 0.111 -0.858 -0.06 -1.094 -0.422 c -2.604 -4.006 -3.446 -7.912 -2.373 -10.997 c 0.736 -2.118 2.361 -3.736 4.596 -4.586 c 4.143 -6.278 12.673 -6.585 19.374 -4.066 c 0.378 0.142 0.634 0.497 0.647 0.9 c 0.015 0.403 -0.215 0.776 -0.582 0.944 c -0.797 0.366 -1.315 0.675 -1.653 0.919 c 3.885 1.761 6.282 4.037 7.132 6.775 c 0.902 2.907 0.063 6.313 -2.498 10.124 C 57.141 21.42 56.827 21.581 56.501 21.581 z M 46.415 1.996 c -4.024 0 -7.827 1.397 -9.995 4.899 c -0.123 0.198 -0.31 0.347 -0.531 0.421 c -1.837 0.619 -3.111 1.819 -3.685 3.469 c -0.655 1.882 -0.376 4.218 0.776 6.749 c 0.499 -1.852 1.383 -3.159 2.671 -3.962 c 2.957 -1.846 7.379 -0.391 10.9 1.084 c 3.231 1.235 5.987 1.047 8.479 0.658 c 0.573 -0.104 1.14 0.04 1.568 0.418 c 0.36 0.317 0.593 0.764 0.738 1.294 c 0.873 -2.036 1.069 -3.851 0.582 -5.419 c -0.748 -2.409 -3.165 -4.437 -7.185 -6.028 c -0.463 -0.183 -0.721 -0.679 -0.605 -1.163 c 0.149 -0.622 0.572 -1.189 1.322 -1.746 C 49.803 2.238 48.09 1.996 46.415 1.996 z" style="stroke: none; stroke-width: 1; stroke-dasharray: none; stroke-linecap: butt; stroke-linejoin: miter; stroke-miterlimit: 10; fill: rgb(0,0,0); fill-rule: nonzero; opacity: 1;" transform=" matrix(1 0 0 1 0 0) " stroke-linecap="round" />
	<polyline points="19.34,67.05 19.34,49.43 44.99,57.01 44.99,89 19.34,81.42 19.34,74.59 " style="stroke: none; stroke-width: 1; stroke-dasharray: none; stroke-linecap: butt; stroke-linejoin: miter; stroke-miterlimit: 10; fill: rgb(221,66,49); fill-rule: nonzero; opacity: 1;" transform="  matrix(1 0 0 1 0 0) "/>
	<polyline points="70.66,67.05 70.66,49.43 45.01,57.01 45.01,89 70.66,81.42 70.66,74.59 " style="stroke: none; stroke-width: 1; stroke-dasharray: none; stroke-linecap: butt; stroke-linejoin: miter; stroke-miterlimit: 10; fill: rgb(221,66,49); fill-rule: nonzero; opacity: 1;" transform="  matrix(1 0 0 1 0 0) "/>
	<path d="M 44.993 90 c -0.095 0 -0.19 -0.014 -0.283 -0.041 l -25.649 -7.577 c -0.425 -0.126 -0.717 -0.516 -0.717 -0.959 v -6.832 c 0 -0.553 0.448 -1 1 -1 c 0.552 0 1 0.447 1 1 v 6.085 l 23.649 6.986 v -29.91 l -23.649 -6.986 v 16.285 c 0 0.553 -0.448 1 -1 1 c -0.552 0 -1 -0.447 -1 -1 V 49.429 c 0 -0.315 0.149 -0.612 0.401 -0.801 c 0.252 -0.189 0.58 -0.248 0.882 -0.158 l 25.649 7.577 c 0.425 0.126 0.717 0.516 0.717 0.959 V 89 c 0 0.315 -0.149 0.612 -0.401 0.801 C 45.417 89.932 45.207 90 44.993 90 z" style="stroke: none; stroke-width: 1; stroke-dasharray: none; stroke-linecap: butt; stroke-linejoin: miter; stroke-miterlimit: 10; fill: rgb(0,0,0); fill-rule: nonzero; opacity: 1;" transform=" matrix(1 0 0 1 0 0) " stroke-linecap="round" />
	<path d="M 45.006 90 c -0.213 0 -0.424 -0.068 -0.599 -0.199 c -0.252 -0.188 -0.401 -0.485 -0.401 -0.801 V 57.005 c 0 -0.443 0.292 -0.833 0.717 -0.959 l 25.648 -7.577 c 0.301 -0.089 0.63 -0.031 0.882 0.158 c 0.253 0.188 0.401 0.485 0.401 0.801 v 17.623 c 0 0.553 -0.447 1 -1 1 c -0.553 0 -1 -0.447 -1 -1 V 50.767 l -23.648 6.986 v 29.91 l 23.648 -6.986 v -6.085 c 0 -0.553 0.447 -1 1 -1 c 0.553 0 1 0.447 1 1 v 6.832 c 0 0.443 -0.292 0.833 -0.717 0.959 L 45.29 89.959 C 45.197 89.986 45.101 90 45.006 90 z" style="stroke: none; stroke-width: 1; stroke-dasharray: none; stroke-linecap: butt; stroke-linejoin: miter; stroke-miterlimit: 10; fill: rgb(0,0,0); fill-rule: nonzero; opacity: 1;" transform=" matrix(1 0 0 1 0 0) " stroke-linecap="round" />
	<path d="M 20.699 74.591 h -1.348 c -3.218 -2.513 -3.218 -5.027 0 -7.54 h 1.348 c 2.082 0 3.77 1.688 3.77 3.77 v 0 C 24.469 72.903 22.782 74.591 20.699 74.591 z" style="stroke: none; stroke-width: 1; stroke-dasharray: none; stroke-linecap: butt; stroke-linejoin: miter; stroke-miterlimit: 10; fill: rgb(221,66,49); fill-rule: nonzero; opacity: 1;" transform=" matrix(1 0 0 1 0 0) " stroke-linecap="round" />
	<path d="M 69.301 74.591 h 1.348 c 3.218 -2.513 3.218 -5.027 0 -7.54 h -1.348 c -2.082 0 -3.77 1.688 -3.77 3.77 v 0 C 65.531 72.903 67.218 74.591 69.301 74.591 z" style="stroke: none; stroke-width: 1; stroke-dasharray: none; stroke-linecap: butt; stroke-linejoin: miter; stroke-miterlimit: 10; fill: rgb(221,66,49); fill-rule: nonzero; opacity: 1;" transform=" matrix(1 0 0 1 0 0) " stroke-linecap="round" />
	<path d="M 20.699 75.591 h -1.348 c -0.223 0 -0.44 -0.074 -0.616 -0.212 c -1.856 -1.449 -2.798 -2.984 -2.798 -4.558 c 0 -1.574 0.941 -3.109 2.798 -4.558 c 0.176 -0.138 0.393 -0.212 0.616 -0.212 h 1.348 c 2.631 0 4.77 2.14 4.77 4.77 C 25.47 73.451 23.33 75.591 20.699 75.591 z M 19.704 73.591 h 0.996 c 1.527 0 2.77 -1.242 2.77 -2.77 s -1.243 -2.77 -2.77 -2.77 h -0.996 c -1.172 0.975 -1.766 1.905 -1.766 2.77 C 17.938 71.686 18.532 72.616 19.704 73.591 z" style="stroke: none; stroke-width: 1; stroke-dasharray: none; stroke-linecap: butt; stroke-linejoin: miter; stroke-miterlimit: 10; fill: rgb(0,0,0); fill-rule: nonzero; opacity: 1;" transform=" matrix(1 0 0 1 0 0) " stroke-linecap="round" />
	<path d="M 70.649 75.591 h -1.348 c -2.631 0 -4.771 -2.14 -4.771 -4.77 c 0 -2.63 2.14 -4.77 4.771 -4.77 h 1.348 c 0.223 0 0.439 0.074 0.615 0.212 c 1.857 1.449 2.798 2.984 2.798 4.558 c 0 1.574 -0.941 3.109 -2.798 4.558 C 71.088 75.517 70.871 75.591 70.649 75.591 z M 69.301 68.052 c -1.527 0 -2.771 1.242 -2.771 2.77 s 1.243 2.77 2.771 2.77 h 0.995 c 1.172 -0.975 1.766 -1.905 1.766 -2.77 c 0 -0.864 -0.594 -1.795 -1.766 -2.77 H 69.301 z" style="stroke: none; stroke-width: 1; stroke-dasharray: none; stroke-linecap: butt; stroke-linejoin: miter; stroke-miterlimit: 10; fill: rgb(0,0,0); fill-rule: nonzero; opacity: 1;" transform=" matrix(1 0 0 1 0 0) " stroke-linecap="round" />
	<path d="M 21.29 51.001 c -0.132 0 -0.266 -0.026 -0.395 -0.081 c -0.507 -0.219 -0.742 -0.807 -0.523 -1.315 c 1.616 -3.758 4.306 -6.05 8.224 -7.006 l 5.856 -0.989 c 0.22 -0.037 0.439 -0.093 0.65 -0.165 l 0.144 -0.053 c 1.359 -0.53 2.237 -1.734 2.237 -3.068 l 0.037 -1.522 c 0.013 -0.552 0.515 -1 1.023 -0.976 c 0.552 0.013 0.989 0.472 0.976 1.023 l -0.036 1.498 c 0 2.139 -1.378 4.074 -3.509 4.907 l -0.22 0.081 c -0.315 0.108 -0.641 0.191 -0.969 0.247 l -5.785 0.975 c -3.24 0.793 -5.42 2.653 -6.79 5.839 C 22.046 50.774 21.678 51.001 21.29 51.001 z" style="stroke: none; stroke-width: 1; stroke-dasharray: none; stroke-linecap: butt; stroke-linejoin: miter; stroke-miterlimit: 10; fill: rgb(0,0,0); fill-rule: nonzero; opacity: 1;" transform=" matrix(1 0 0 1 0 0) " stroke-linecap="round" />
	<path d="M 68.798 50.977 c -0.387 0 -0.756 -0.227 -0.919 -0.605 c -1.362 -3.168 -3.539 -5.02 -6.85 -5.828 l -5.713 -0.96 c -0.446 -0.076 -0.882 -0.2 -1.293 -0.369 c -2.069 -0.853 -3.406 -2.772 -3.406 -4.889 l -0.036 -1.563 c -0.013 -0.552 0.425 -1.01 0.978 -1.023 c 0.008 0 0.016 0 0.022 0 c 0.542 0 0.987 0.433 1 0.977 l 0.036 1.586 c 0 1.327 0.851 2.52 2.168 3.063 c 0.273 0.113 0.564 0.196 0.863 0.247 l 5.784 0.974 c 3.988 0.972 6.675 3.256 8.285 6.997 c 0.218 0.507 -0.017 1.095 -0.524 1.314 C 69.065 50.95 68.93 50.977 68.798 50.977 z" style="stroke: none; stroke-width: 1; stroke-dasharray: none; stroke-linecap: butt; stroke-linejoin: miter; stroke-miterlimit: 10; fill: rgb(0,0,0); fill-rule: nonzero; opacity: 1;" transform=" matrix(1 0 0 1 0 0) " stroke-linecap="round" />
</g>
</svg>